grf
version=1
nRows=12
nColumns=28
inDegrees=no
endheader
time	ground_force_1_vx	ground_force_1_vy	ground_force_1_vz	ground_force_1_px	ground_force_1_py	ground_force_1_pz	ground_moment_1_mx	ground_moment_1_my	ground_moment_1_mz	ground_force_2_vx	ground_force_2_vy	ground_force_2_vz	ground_force_2_px	ground_force_2_py	ground_force_2_pz	ground_moment_2_mx	ground_moment_2_my	ground_moment_2_mz	ground_force_3_vx	ground_force_3_vy	ground_force_3_vz	ground_force_3_px	ground_force_3_py	ground_force_3_pz	ground_moment_3_mx	ground_moment_3_my	ground_moment_3_mz
      0.61000000	      0.61826022	     -0.26854317	      1.48026571	    576.33043161	  -1683.01906144	      2.66666438	     -0.16747590	     -0.60559503	   -331.83346702	     46.84001188	   -148.37935600	  -1937.55172712	    402.26986632	  -1728.20194594	      0.16188018	      0.20476734	      2.64824333	  -3173.31959335	      1.76320122	     -0.31132459	      4.80213493	    467.13368692	   -285.21303252	      0.38825127	     -0.20444950	      1.50187107	    731.32131680
      0.62000000	      0.49701313	     -0.36298122	      1.04559917	    605.72715677	  -1767.19748680	      2.80545325	     -0.16148069	     -0.58391625	   -319.95466463	     30.96711655	   -186.10648536	  -1777.30983731	    403.92554629	  -1731.63395364	      0.15912289	      0.23125084	      2.99075276	  -3583.73954315	      1.75277176	     -0.62993708	      4.77089072	    444.28827214	   -260.53093940	      0.33117642	     -0.20233160	      1.48631315	    723.74554474
      0.63000000	      0.65813861	     -0.12991060	      1.02499754	    546.12590182	  -1757.07667058	      2.81706347	     -0.20053381	     -0.72513285	   -397.33375725	     13.06536442	   -216.51290723	  -1583.50849673	    405.70845174	  -1734.68924029	      0.15668819	      0.24825553	      3.21067337	  -3847.26455915	      1.78631893	     -0.65860714	      4.80318990	    466.48375162	   -289.72922680	      0.39734421	     -0.17055823	      1.25290832	    610.09136184
      0.64000000	      0.56682146	     -0.25889883	      1.02438427	    498.16841493	  -1715.74968072	      2.76584592	     -0.19069367	     -0.68955078	   -377.83670094	     -2.47836846	   -226.02371649	  -1363.75176954	    407.62710113	  -1738.46971836	      0.15365706	      0.22669913	      2.93188581	  -3513.20084219	      1.70343792	     -0.37726099	      4.79424333	    452.23871140	   -298.46756146	      0.41130724	     -0.18839066	      1.38390405	    673.87843966
      0.65000000	      0.32341868	      0.06521285	      0.54947993	    551.58820228	  -2108.12221645	      3.45496366	     -0.17590193	     -0.63606364	   -348.52862453	    -13.55916186	   -225.56018008	  -1112.66019514	    409.23030886	  -1742.14304720	      0.15069499	      0.17961439	      2.32294179	  -2783.51940850	      1.65801973	     -0.21906710	      4.70907729	    501.90515804	   -293.96485366	      0.41594514	     -0.18297621	      1.34412987	    654.51079788
      0.66000000	      0.32663905	     -0.21958743	      0.37293473	    199.97062356	  -2410.39557760	      4.18407251	     -0.26187229	     -0.94693359	   -518.86862010	    -20.60552515	   -207.51320077	   -853.28722316	    410.12255396	  -1745.42628763	      0.14801259	      0.10802619	      1.39709598	  -1674.10297420	      1.68839515	     -0.47482273	      4.77628090	    461.28181632	   -271.72141138	      0.35890837	     -0.18403628	      1.35191703	    658.30267796
      0.67000000	      0.24313950	     -0.11656330	      0.83995436	    311.02313094	  -1564.03605888	      2.58342101	     -0.10576187	     -0.38243630	   -209.55449947	    -23.97624344	   -177.06437928	   -590.91871485	    410.82003302	  -1749.92374853	      0.14430432	      0.04121714	      0.53305876	   -638.75014160	      1.61372159	     -0.59511683	      4.66610066	    454.70573950	   -275.86486665	      0.36557912	     -0.19179201	      1.40889012	    686.04516223
      0.68000000	      0.50736935	      0.20676673	      0.87671464	    299.72087750	  -1472.64378725	      2.42233464	     -0.10032899	     -0.36279093	   -198.78989543	    -18.49713335	   -120.75620287	   -366.68650210	    410.94378664	  -1758.54911065	      0.13711414	     -0.01103157	     -0.14267066	    170.95846023	      1.60771023	     -0.28709014	      5.00120848	    439.88079610	   -284.05085953	      0.37824571	     -0.17060191	      1.25322917	    610.24759332
      0.69000000	      0.27769328	      0.19428902	      1.24005520	    316.65142358	  -1342.62973256	      2.17651457	     -0.05915067	     -0.21388957	   -117.19996874	    -14.52566127	    -71.65825917	   -211.29732137	    411.39931682	  -1771.97283290	      0.12594098	     -0.06060505	     -0.78380134	    939.20830831	      1.53815059	     -0.37591641	      4.35071432	    464.72289678	   -282.12485278	      0.38123529	     -0.14437339	      1.06055636	    516.42746836
      0.70000000	      0.28244307	      0.43941690	      1.02860658	    300.66001636	  -1359.27266170	      2.21495871	     -0.05122068	     -0.18521463	   -101.48764355	     -6.89464716	    -30.25490445	   -112.05277895	    409.64974666	  -1789.69971107	      0.11103440	     -0.04722494	     -0.61075717	    731.85408437	      1.42266783	     -0.45666720	      5.17770527	    478.55872637	   -326.94211673	      0.47714181	     -0.14410152	      1.05855927	    515.45500554
      0.71000000	      0.43371951	      0.19797864	      0.81296353	    149.21896917	  -1541.79135252	      2.62448684	     -0.06872479	     -0.24850974	   -136.16995915	      0.96202548	    -20.59672591	    -40.80580979	    404.21247696	  -1812.41549751	      0.09172645	     -0.01002951	     -0.12971098	    155.42922240	      1.51752908	     -0.44162191	      4.56391478	    462.13956163	   -232.53748939	      0.27867847	     -0.22026554	      1.61805456	    787.89572588
      0.72000000	      0.37426219	      0.28235237	      0.79984379	    168.37918146	  -1298.07284442	      2.17003120	     -0.02270264	     -0.08209305	    -44.98257246	      2.38446844	     -3.83350397	     -7.31028016	    434.10018427	  -1917.44888218	      0.00600110	      0.00226994	      0.02935705	    -35.17776797	      1.71658718	     -0.49139260	      5.50745392	    443.14368836	   -324.11690014	      0.46143914	     -0.14660329	      1.07693708	    524.40390175
